<?xml version="1.0" encoding="UTF-8"?>
<svg id="Capa_1" data-name="Capa 1" xmlns="http://www.w3.org/2000/svg" viewBox="0 0 841.89 154.03">
  <defs>
    <style>
      .cls-1 {
        fill: #1d1d1b;
      }

      .cls-2 {
        fill: #f97fb5;
      }
    </style>
  </defs>
  <polygon class="cls-2" points="641.13 22.81 552.7 22.81 627.37 129.41 641.13 129.41 641.13 22.81"/>
  <g>
    <polygon class="cls-1" points="663.21 45.69 652.27 45.69 652.27 36.66 662.85 36.66 662.85 34.45 652.27 34.45 652.27 25.65 663.21 25.65 663.21 23.43 649.82 23.43 649.82 47.91 663.21 47.91 663.21 45.69"/>
    <path class="cls-1" d="M671.98,46.12c-2.94,0-4.93-1.92-5.09-5.06h-2.45c.07,4.37,3.21,7.28,7.54,7.28,4.1,0,7.38-3.18,7.38-7.18,0-3.31-1.79-6.05-7.08-7.41-3.47-.89-4.73-2.18-4.73-4.27,0-2.38,1.92-4.27,4.43-4.27,2.28,0,4.33,1.92,4.33,4.43h2.45c0-3.77-2.98-6.65-6.78-6.65s-6.88,2.71-6.88,6.58c0,4.47,3.34,5.62,6.85,6.62,3.21.93,4.96,2.42,4.96,5.06s-2.15,4.86-4.93,4.86Z"/>
    <path class="cls-1" d="M683.59,38.05h4.93c6.68,0,8.8-3.97,8.8-7.24s-2.02-7.38-8.77-7.38h-7.41v24.48h2.45v-9.86ZM683.59,25.65h4.93c4.8,0,6.35,2.65,6.35,5.09,0,3.04-2.41,5.09-5.82,5.09h-5.46v-10.19Z"/>
    <path class="cls-1" d="M697.22,47.91l3.57-8.24h11.38l3.54,8.24h2.68l-10.52-24.48h-2.75l-10.45,24.48h2.55ZM706.51,26.21l4.7,11.25h-9.49l4.8-11.25Z"/>
    <path class="cls-1" d="M731.45,48.34c4.63,0,8.9-2.58,11.28-6.85h-2.75c-2.22,2.94-5.23,4.63-8.57,4.63-5.49,0-10.32-4.89-10.32-10.39s4.83-10.49,10.29-10.49c3.31,0,6.62,1.65,8.5,4.47h2.75c-1.95-4.07-6.68-6.68-11.21-6.68-7.05,0-12.77,5.49-12.77,12.67s5.82,12.64,12.8,12.64Z"/>
    <rect class="cls-1" x="745.11" y="23.43" width="2.45" height="24.48"/>
    <path class="cls-1" d="M762.91,48.34c7.11,0,12.97-5.76,12.97-12.67s-5.85-12.67-12.97-12.67-12.93,5.76-12.93,12.8,6.25,12.54,12.93,12.54ZM762.87,25.22c5.89,0,10.55,4.83,10.55,10.49s-4.66,10.42-10.52,10.42-10.49-4.8-10.49-10.32,4.66-10.59,10.45-10.59Z"/>
    <path class="cls-1" d="M665.3,53.27c-2.18-1.42-5.16-2.15-8.1-2.15h-7.24v24.48h7.15c4.13,0,7.61-1.19,9.99-3.67,2.38-2.45,3.54-5.39,3.54-8.43,0-4.13-2.02-8.04-5.33-10.22ZM665.46,70.44c-1.79,1.89-4.5,2.94-8.57,2.94h-4.5v-20.05h4.4c3.14,0,5.76.76,7.48,2.08,2.58,1.98,3.9,4.76,3.9,7.94,0,2.55-.86,5.09-2.71,7.08Z"/>
    <polygon class="cls-1" points="686.3 53.34 686.3 51.12 672.9 51.12 672.9 75.6 686.3 75.6 686.3 73.38 675.35 73.38 675.35 64.35 685.94 64.35 685.94 62.14 675.35 62.14 675.35 53.34 686.3 53.34"/>
    <path class="cls-1" d="M703.04,67.36h9.26v8.24h2.45v-24.48h-3.34l-17.07,24.48h2.98l5.72-8.24ZM712.23,53.9h.07v11.25h-7.71l7.64-11.25Z"/>
    <path class="cls-1" d="M734.66,59.03c0-4.13-2.85-7.91-9.23-7.91h-7.38v24.48h2.45v-22.26h4.66c5.62,0,7.05,3.31,7.05,5.62,0,3.34-2.58,5.56-6.91,5.56h-2.38l8.3,11.08h3.08l-6.91-9.13c4.3-.33,7.28-3.47,7.28-7.44Z"/>
    <polygon class="cls-1" points="748.35 51.12 734.69 51.12 734.69 53.34 740.31 53.34 740.31 75.6 742.76 75.6 742.76 53.34 748.35 53.34 748.35 51.12"/>
    <polygon class="cls-1" points="762.77 73.38 751.82 73.38 751.82 64.35 762.41 64.35 762.41 62.14 751.82 62.14 751.82 53.34 762.77 53.34 762.77 51.12 749.38 51.12 749.38 75.6 762.77 75.6 762.77 73.38"/>
    <path class="cls-1" d="M661.56,103.72c2.38,0,4.57-.43,6.19-1.26v-2.61c-1.75,1.03-4,1.65-6.15,1.65-5.82,0-10.22-4.63-10.22-10.49s4.47-10.42,10.22-10.42c2.05,0,5.13.96,6.15,1.75v-2.65c-.99-.73-4.14-1.36-6.15-1.36-7.05,0-12.67,5.19-12.67,12.64s5.19,12.74,12.64,12.74Z"/>
    <path class="cls-1" d="M682.33,103.72c7.11,0,12.97-5.76,12.97-12.67s-5.85-12.67-12.97-12.67-12.93,5.76-12.93,12.8,6.25,12.54,12.93,12.54ZM682.3,80.6c5.89,0,10.55,4.83,10.55,10.49s-4.66,10.42-10.52,10.42-10.49-4.8-10.49-10.32,4.66-10.59,10.45-10.59Z"/>
    <polygon class="cls-1" points="700.13 81.76 700.19 81.76 714.71 103.29 717.16 103.29 717.16 78.81 714.71 78.81 714.71 99.12 714.65 99.12 700.99 78.81 697.68 78.81 697.68 103.29 700.13 103.29 700.13 81.76"/>
    <polygon class="cls-1" points="726.42 103.29 726.42 81.03 732.01 81.03 732.01 78.81 718.35 78.81 718.35 81.03 723.97 81.03 723.97 103.29 726.42 103.29"/>
    <polygon class="cls-1" points="746.43 81.03 746.43 78.81 733.04 78.81 733.04 101.56 729.47 103.5 730.56 105.42 734.56 103.29 746.43 103.29 746.43 101.07 735.48 101.07 735.48 92.04 746.07 92.04 746.07 89.83 735.48 89.83 735.48 81.03 746.43 81.03"/>
    <polygon class="cls-1" points="767.01 78.81 767.01 98.79 766.94 98.79 752.78 78.81 749.41 78.81 749.41 103.29 751.86 103.29 751.86 81.46 751.92 81.46 767.3 103.29 769.45 103.29 769.45 81.33 769.52 81.33 784.41 103.29 787.48 103.29 770.51 78.81 767.01 78.81"/>
    <rect class="cls-1" x="784.67" y="92.87" width="9" height="2.22"/>
    <path class="cls-1" d="M657.39,106.5h-7.41v24.48h2.45v-9.86h4.93c6.68,0,8.8-3.97,8.8-7.24s-2.02-7.38-8.77-7.38ZM657.89,118.91h-5.46v-10.19h4.93c4.8,0,6.35,2.65,6.35,5.09,0,3.04-2.41,5.09-5.82,5.09Z"/>
    <path class="cls-1" d="M679.92,106.07c-7.18,0-12.93,5.76-12.93,12.8s6.25,12.54,12.93,12.54c7.11,0,12.97-5.76,12.97-12.67s-5.85-12.67-12.97-12.67ZM679.92,129.19c-5.69,0-10.49-4.8-10.49-10.32s4.66-10.59,10.45-10.59,10.55,4.83,10.55,10.49-4.66,10.42-10.52,10.42Z"/>
    <path class="cls-1" d="M711.29,130.91l-6.86-9.06c4.3-.33,7.28-3.47,7.28-7.44s-2.85-7.91-9.23-7.91h-7.38v24.48h2.45v-22.26h4.66c5.62,0,7.05,3.31,7.05,5.62,0,3.34-2.58,5.56-6.91,5.56h-2.38l8.3,11.08h5.95l5.72-8.24h9.26v8.24h2.45v-24.48h-3.34l-17.02,24.41ZM729.2,109.28v11.25h-7.71l7.64-11.25h.07Z"/>
    <polygon class="cls-1" points="752.16 126.81 752.09 126.81 738.43 106.5 735.12 106.5 735.12 130.98 737.57 130.98 737.57 109.45 737.63 109.45 752.16 130.98 754.6 130.98 754.6 106.5 752.16 106.5 752.16 126.81"/>
    <polygon class="cls-1" points="757.91 130.98 771.31 130.98 771.31 128.76 760.36 128.76 760.36 119.73 770.94 119.73 770.94 117.52 760.36 117.52 760.36 108.72 771.31 108.72 771.31 106.5 757.91 106.5 757.91 130.98"/>
    <path class="cls-1" d="M780.96,106.07c-4.37,0-8.2,3.14-8.2,8.57v7.64c0,6.12,3.67,9.13,8.2,9.13s8.2-3.01,8.2-9.1v-7.64c0-5.56-3.9-8.6-8.2-8.6ZM786.72,122.12c0,5.59-3.01,7.08-5.76,7.08s-5.76-1.59-5.76-7.21v-6.71c0-5.26,3.31-6.98,5.69-6.98s5.82,1.55,5.82,6.98v6.85Z"/>
  </g>
  <path class="cls-1" d="M64.4,84.26c4.14,20,19.14,33,38.86,33,14.86,0,27.43-7,34.86-21.14h16.57c-8.86,22.14-29,35.29-51.43,35.29-30.57,0-55-24.72-55-54.86s25.43-54.86,55-54.86,55,24.72,55,54.15c0,3.43,0,5.86-.57,8.43h-93.29ZM142.26,70.12c-3.71-20.14-18.72-34.29-39.15-34.29s-35.14,13.57-38.86,34.29h78.01Z"/>
  <path class="cls-1" d="M157.68,129.41V23.69h53.43v14.14h-38v31.72h38v14.14h-38v45.72h-15.43Z"/>
  <path class="cls-1" d="M216.58,129.41V23.69h15.43v105.72h-15.43Z"/>
  <path class="cls-1" d="M369.17,129.41V47.83h-.29l-58.29,81.58h-11.43V47.83h-.29l-58.29,81.58h-19.57l77.58-105.72h16v73.29h.29l53.72-73.29h16v105.72h-15.43Z"/>
  <path class="cls-1" d="M390.59,129.41V23.69h57v14.14h-41.57v31.15h41.57v14.14h-41.57v32.15h41.57v14.14h-57Z"/>
  <path class="cls-1" d="M503.22,129.41l-34.86-49h-.29v49h-15.43V23.69h33.86c25.43,0,36.72,13.43,36.72,35.15,0,20.14-15.43,30.72-30.29,31.15l29.57,39.43h-19.29ZM479.36,78.26c18,0,28.43-7,28.43-20.72,0-12.14-9.71-19.72-23.43-19.72h-16.29v40.43h11.29Z"/>
  <path class="cls-1" d="M595.94,129.41l-21.29-31.15h-36v31.15h-15.43V23.69h19l72.58,105.72h-18.86ZM538.94,43.69h-.29v40.43h26.29l-26-40.43Z"/>
  <polygon class="cls-2" points="237.47 23.6 237.47 60.33 269.28 23.51 237.47 23.6"/>
</svg>